<?xml version="1.0" encoding="UTF-8"?>
<svg id="Ebene_2" data-name="Ebene 2" xmlns="http://www.w3.org/2000/svg" viewBox="0 0 971.5 259.8">
  <defs>
    <style>
      .cls-1 {
        fill: #fff;
      }
    </style>
  </defs>
  <g id="Ebene_1-2" data-name="Ebene 1">
    <path class="cls-1" d="M914.22,21.96c31.31,5.47,54.89,36.09,56.98,67.26,1.71,25.45-3.55,49.83-20.51,69.34-19.85,22.82-51.78,27.52-80.36,21.98l-7.29,27.12c-1.69,3.51-5.99,5.79-8.05,1.44-2.46-5.21,7.02-24.17,6.18-30.98-5.68-3.37-11.8-5.93-17.22-9.78-41.69-29.59-44.81-100.79-5.14-133.38,17.83-14.65,42.49-18.07,64.82-15.14,3.86-.85,3.49-19.34,9.13-19.83,11.05,2.03-.07,14.64,1.46,21.96ZM903.23,24.98c-42.46-8.31-69.34,22.24-71.98,62.25-2.04,30.96,3.06,65.77,31.57,83.23l40.41-145.49ZM931.85,40.27c-2.46-2.58-17.99-14.67-20.63-12.3l-38.78,143.3c-.36,1.38-.54,2.77.8,3.76,2.51,1.85,19.62,2.69,23.49,2.47,61.85-3.47,69.7-101,35.13-137.22Z"/>
    <path class="cls-1" d="M73.03,91.77c.99,2.78,4.63,1.73,7.04,2.43,22.11,6.43,40.03,18.23,38.95,43.95-2.27,54.17-83.18,40.57-118.93,42.32v-2.98c15.4.9,20.08-4.02,21.86-18.57,3.44-28.05,2.48-71.78,1.16-100.6-.29-6.46-.99-16.43-2.32-22.61-1.79-8.33-6.6-10.75-14.46-12.48-2.45-.54-7.07,1.04-6.24-2.24,26.77,1.61,57.06-3.97,82.7,4.69,17.71,5.99,26.71,18.42,24.11,37.59-2.12,15.63-19.9,25.33-33.88,28.5ZM38.06,27.47v61.8c0,.25,1.92,2.13,2.61,2.26,8.41-.95,15.99-.8,24.17-3.45,17.59-5.71,23.95-18.56,22.17-36.68s-21.58-23.84-36.57-25.31c-2.31-.23-11.66-.94-12.37,1.38ZM39.69,95.89l-1.2.8c-.5.76-.38,1.66-.48,2.51-1.68,13.65.49,29.23,1.09,42.87.45,10.09-3.24,34.08,12.41,33.47,26.07-1.03,49.38-14.5,47.48-43.39-2.04-30.99-33.57-37.19-59.29-36.25Z"/>
    <path class="cls-1" d="M405.2,20.99c34.41,40.9,66.24,84.02,100.43,125.08,2.38,2.86,5.27,6.96,8.46,8.51l.55-89.27c-1.75-8.61-.44-16.93-2.31-25.61-3.12-14.46-7.95-14.83-21.21-16.74-1.76-.25-1.66.5-1.5-1.97h54.45c.22,0,1.83,1.72,1.5,1.98-25.99-2.25-23.94,19.58-26.02,38.34l.05,120.17-7.57-.93-104.28-131.98-3.03-.67-.05,90.26c1.95,10.65-.12,33.76,12.79,38.07,3.99,1.33,11.92-.22,12.23,4.25h-54.95c.31-4.47,8.24-2.92,12.23-4.25,11.7-3.9,11.1-22.49,11.76-32.13,1.96-28.86,3.38-71.02-.26-99.44-1.45-11.33-4.7-18.94-16.46-21.45-2.62-.56-8.07,1.17-7.26-2.23h30.47Z"/>
    <path class="cls-1" d="M254.35,20.99l1.3,1.69c13.63,36.64,26.21,73.78,40.4,110.21,3.63,9.31,12.66,36.06,19.8,41.05,2.35,1.65,5.08,2.54,7.87,3.11,3.8.77,7.06-.96,6.05,3.44h-55.95c.65-5.1,8.59-2.02,12.94-4.53,6-3.46,1.09-15.03-.45-20.39-2.41-8.4-5.77-16.56-8.62-24.79l-69.85.32c-1.63,1.09-9.68,29.3-9.93,32.95-.62,8.93.45,12.11,9.58,13.34,3.96.54,8.56-1.71,7.39,3.1h-49.95v-2.99c22.11,2.54,29.42-26.64,35.43-42.9,9.73-26.32,21.27-57.14,28.8-83.91,2.76-9.81,8.72-24.56-5.02-27.46-2.46-.52-7.08,1.07-6.26-2.23h36.46ZM274.83,124.66l-33.96-90.71-30.98,90.71h64.94Z"/>
    <path class="cls-1" d="M748.37,60.86l-3.08-.59c-7.52-29.77-35.26-38.56-63.34-36.28-55.8,4.53-64.05,81.94-43.34,121.98,18.94,36.63,66.66,36.53,99.46,19.74,2.4-1.23,13.82-9.64,15.3-8.15,1.01,5.52-2.31,6.77-6.07,9.38-23.63,16.42-62.25,20.11-89.08,10.3-47.87-17.51-62.84-80.2-37.89-122.03,23.76-39.84,70.05-42.55,110.85-29.52,3.15,1.01,17.2,5.58,17.2,8.76v26.42Z"/>
    <path class="cls-1" d="M289.27,258.28c-.37-2.46,2.51-.88,3.58-3.35,1.84-4.24,1.85-31.91-.46-35.49-.97-1.49-3.69-.14-3.11-2.5,5.61-3.18,10-.31,14.75-.14,2.44.08,4.63-1.31,7.16-1.09,18.9,1.62,21.11,32.77,6.3,40.87-5.59,3.05-21.49,2.94-28.21,1.71ZM300.01,220.75c-1.35,4.32,0,25.59,0,32.18,0,1.64,4.74,3.99,6.91,3.98,14.54-.06,15.99-27.97,7.72-35.44-3.36-3.03-13.27-5.09-14.63-.73Z"/>
    <path class="cls-1" d="M358.37,218.45c-.41-.48-3.73,1.21-3.06-1.51,9.65-2.93,18.89,1.25,29.17-1.56v12.26c-3.78-.89-3.63-6.95-6.11-8.46-2.99-1.82-8.77-.31-12.32-.74v16.87s5.93-.25,5.93-.25l2.52-5.86c4.26,3.69,1.69,10.32,2.3,15.29-5.4-.6-3.6-6.8-10.74-4.6-.12,9.87-2.87,20.68,11.2,16.54,4.71-1.38,5.45-6.5,6.45-10.4,2.41,1.73,2.44,4.24,2.45,6.88.04,11.2-6.34,5.37-13.19,5.23-6.04-.13-11.21,2.9-17.66.13-.73-2.53,3.06-1.34,3.06-1.52,0-5.28,1.25-36.85,0-38.31Z"/>
    <path class="cls-1" d="M636.34,218.45c-.41-.48-3.73,1.21-3.06-1.51,9.65-2.93,18.89,1.25,29.17-1.56v12.26c-3.73-1.33-4.14-5.74-4.76-9.03l-13.67-.17v16.87c1.74-.27,4.73.6,5.93-.22,1.65-1.12.08-7.52,4.82-5.91v14.55c-4.48,2.49-3.46-6.51-10.74-3.83-.12,9.87-2.87,20.68,11.2,16.54,4.71-1.38,5.45-6.5,6.45-10.4,2.41,1.73,2.44,4.24,2.45,6.88.04,11.2-6.34,5.37-13.19,5.23-6.04-.13-11.21,2.9-17.66.13-.73-2.53,3.06-1.34,3.06-1.52,0-5.28,1.25-36.85,0-38.31Z"/>
    <path class="cls-1" d="M605.62,227.64c-5.15.72-3.43-6.44-7.66-8.43-2.98-1.4-7.32-.96-10.55-.54-1.77,3.38-3.25,14.02-.32,15.98,9.35,4.28,4.43-5.76,10.85-5.46v16.84c-5.12,1.31-1.85-4.76-5.5-6.01-1.62-.55-3.82-.33-5.35.55-2.73,1.9-1.65,11.06.23,13.78,1.53,2.22,4.61,1.54,4.48,3.93-6.09,1.68-10.79,1.68-16.88,0-.5-2.42,2.84-1.43,3.86-2.99,1.33-2.01,1.3-33.36-.01-35.38-1.02-1.58-4.38-.55-3.85-2.97,6.37-3.61,12.15.01,17.65,0,9.97-.02,14.32-6.81,13.05,10.7Z"/>
    <path class="cls-1" d="M551.87,258.28c-5.54,2.31-9.76,1.2-15.35,0-.68-2.56,2.88-.68,3.18-2.46.18-1.08-1.51-10.37-1.96-11-1.93-2.7-13.21-2.32-16.33-.07-.06,2.8-1.37,6.61-.99,9.17.54,3.69,3.86,1.74,3.8,4.35-15.92,4.3-9.01-2.09-5.38-10.73,1.8-4.28,10.71-30.26,12.32-30.62,2.51-.57,3.78,2.84,4.67,4.5,6.05,11.23,6.86,27.11,16.04,36.85ZM533.44,239.9c.31-3.93-.52-8.94-4.58-10.72-2.35,6.91-6.3,11.34,4.58,10.72Z"/>
    <path class="cls-1" d="M484.32,230.71c-.08-12.37-15.97-17.82-21.84-5.69-6.32,13.04-1.5,38.63,17.18,29.4l7.71-9.91v13.78c-11.09-3.18-20.19,5.57-29.78-4.75-9.76-10.5-5.26-36.46,10.54-37.39,3.82-.22,8.91,1.5,12.78,1.89,2.27.23,5.03-1.49,6.51-.48,3.46,2.36,1.7,12.24-3.1,13.14Z"/>
  </g>
</svg>